<svg xmlns="http://www.w3.org/2000/svg" viewBox="0 0 1200 1440" width="1200" height="1440" role="img">

<rect width="1200" height="1440" fill="#eff6ff"/>
<g stroke="#bfdbfe" stroke-width="3" opacity="1">
<line x1="0" y1="0" x2="0" y2="980"/>
<line x1="140" y1="0" x2="140" y2="980"/>
<line x1="280" y1="0" x2="280" y2="980"/>
<line x1="420" y1="0" x2="420" y2="980"/>
<line x1="560" y1="0" x2="560" y2="980"/>
<line x1="700" y1="0" x2="700" y2="980"/>
<line x1="840" y1="0" x2="840" y2="980"/>
<line x1="980" y1="0" x2="980" y2="980"/>
<line x1="1120" y1="0" x2="1120" y2="980"/>
<line x1="0" y1="0" x2="1200" y2="0"/>
<line x1="0" y1="140" x2="1200" y2="140"/>
<line x1="0" y1="280" x2="1200" y2="280"/>
<line x1="0" y1="420" x2="1200" y2="420"/>
<line x1="0" y1="560" x2="1200" y2="560"/>
<line x1="0" y1="700" x2="1200" y2="700"/>
<line x1="0" y1="840" x2="1200" y2="840"/>
<line x1="0" y1="980" x2="1200" y2="980"/>
</g>
<rect x="420" y="220" width="360" height="560" rx="180" fill="#1e3a8a"/>
<rect x="470" y="270" width="260" height="460" rx="130" fill="#3b82f6"/>
<rect x="390" y="190" width="420" height="620" rx="210" fill="none" stroke="#ea580c" stroke-width="14"/>
<rect x="300" y="900" width="600" height="180" fill="#1e40af"/>
<rect x="540" y="960" width="120" height="20" fill="#ffffff"/>
<rect x="588" y="800" width="24" height="100" fill="#ea580c"/>
<rect x="0" y="1080" width="1200" height="360" fill="#e9eef6"/>
<g stroke="#bfdbfe" stroke-width="3" opacity="1">
<line x1="0" y1="1080" x2="0" y2="1440"/>
<line x1="180" y1="1080" x2="180" y2="1440"/>
<line x1="360" y1="1080" x2="360" y2="1440"/>
<line x1="540" y1="1080" x2="540" y2="1440"/>
<line x1="720" y1="1080" x2="720" y2="1440"/>
<line x1="900" y1="1080" x2="900" y2="1440"/>
<line x1="1080" y1="1080" x2="1080" y2="1440"/>
<line x1="0" y1="1080" x2="1200" y2="1080"/>
<line x1="0" y1="1260" x2="1200" y2="1260"/>
<line x1="0" y1="1440" x2="1200" y2="1440"/>
</g>

</svg>
