<svg xmlns="http://www.w3.org/2000/svg" viewBox="0 0 1200 900" width="1200" height="900" role="img">
<defs><linearGradient id="v" x1="0" y1="0" x2="0" y2="1"><stop offset="0.55" stop-color="#1b2023" stop-opacity="0"/><stop offset="1" stop-color="#1b2023" stop-opacity="0.62"/></linearGradient></defs>

<rect width="1200" height="900" fill="#2b3336"/>
<g stroke="#e7e5e0" stroke-width="3" opacity="0.22">
<line x1="0" y1="0" x2="0" y2="900"/>
<line x1="160" y1="0" x2="160" y2="900"/>
<line x1="320" y1="0" x2="320" y2="900"/>
<line x1="480" y1="0" x2="480" y2="900"/>
<line x1="640" y1="0" x2="640" y2="900"/>
<line x1="800" y1="0" x2="800" y2="900"/>
<line x1="960" y1="0" x2="960" y2="900"/>
<line x1="1120" y1="0" x2="1120" y2="900"/>
<line x1="0" y1="0" x2="1200" y2="0"/>
<line x1="0" y1="160" x2="1200" y2="160"/>
<line x1="0" y1="320" x2="1200" y2="320"/>
<line x1="0" y1="480" x2="1200" y2="480"/>
<line x1="0" y1="640" x2="1200" y2="640"/>
<line x1="0" y1="800" x2="1200" y2="800"/>
</g>
<g stroke="#cb9d50" stroke-width="6" fill="none" opacity="0.9">
<path d="M110 140 C 360 140, 360 440, 600 440 S 840 740, 1090 740"/>
<path d="M110 320 C 400 320, 420 620, 700 620"/>
</g>
<g fill="#e7e5e0" opacity="0.22">
<circle cx="300" cy="300" r="58"/><circle cx="600" cy="450" r="58"/>
<circle cx="900" cy="300" r="58"/><circle cx="450" cy="680" r="58"/><circle cx="820" cy="660" r="58"/>
</g>
<g fill="#cb9d50">
<circle cx="300" cy="300" r="20"/><circle cx="600" cy="450" r="20"/>
<circle cx="900" cy="300" r="20"/><circle cx="450" cy="680" r="20"/><circle cx="820" cy="660" r="20"/>
</g>
<rect x="70" y="70" width="1060" height="760" fill="none" stroke="#e7e5e0" stroke-width="14" opacity="0.28"/>

<rect width="1200" height="900" fill="url(#v)"/>
</svg>
