<svg xmlns="http://www.w3.org/2000/svg" viewBox="0 0 1200 900" width="1200" height="900" role="img"><defs><filter id="sh" x="-30%" y="-30%" width="160%" height="160%"><feDropShadow dx="0" dy="26" stdDeviation="26" flood-color="#1b1613" flood-opacity="0.18"/></filter><filter id="sf" x="-30%" y="-30%" width="160%" height="160%"><feDropShadow dx="0" dy="14" stdDeviation="14" flood-color="#1b1613" flood-opacity="0.12"/></filter><radialGradient id="warm" cx="0.72" cy="0.18" r="0.9"><stop offset="0" stop-color="#f3e6d2"/><stop offset="1" stop-color="#f7f3ed"/></radialGradient><linearGradient id="gl" x1="0" y1="0" x2="1" y2="1"><stop offset="0" stop-color="#eef3f1"/><stop offset="0.55" stop-color="#dde5e3"/><stop offset="1" stop-color="#cfd9d6"/></linearGradient><linearGradient id="wd" x1="0" y1="0" x2="0" y2="1"><stop offset="0" stop-color="#9c5f33"/><stop offset="1" stop-color="#7a4726"/></linearGradient></defs><rect width="1200" height="900" fill="url(#warm)"/>
<ellipse cx="600" cy="790" rx="320" ry="38" fill="#1b1613" opacity="0.1"/>
<g filter="url(#sf)">
  <rect x="270" y="170" width="660" height="470" rx="34" fill="#ffffff"/>
</g>
<rect x="300" y="200" width="146" height="126" rx="18" fill="#efe7da" stroke="#e2d8c9" stroke-width="3"/><rect x="460" y="200" width="146" height="126" rx="18" fill="#efe7da" stroke="#e2d8c9" stroke-width="3"/><rect x="620" y="200" width="146" height="126" rx="18" fill="#efe7da" stroke="#e2d8c9" stroke-width="3"/><rect x="780" y="200" width="146" height="126" rx="18" fill="#efe7da" stroke="#e2d8c9" stroke-width="3"/><rect x="300" y="340" width="146" height="126" rx="18" fill="#efe7da" stroke="#e2d8c9" stroke-width="3"/><rect x="460" y="340" width="146" height="126" rx="18" fill="#9c5f33" stroke="#7a4726" stroke-width="3"/><rect x="620" y="340" width="146" height="126" rx="18" fill="#efe7da" stroke="#e2d8c9" stroke-width="3"/><rect x="780" y="340" width="146" height="126" rx="18" fill="#efe7da" stroke="#e2d8c9" stroke-width="3"/><rect x="300" y="480" width="146" height="126" rx="18" fill="#efe7da" stroke="#e2d8c9" stroke-width="3"/><rect x="460" y="480" width="146" height="126" rx="18" fill="#efe7da" stroke="#e2d8c9" stroke-width="3"/><rect x="620" y="480" width="146" height="126" rx="18" fill="#b8892b" stroke="#7a4726" stroke-width="3"/><rect x="780" y="480" width="146" height="126" rx="18" fill="#efe7da" stroke="#e2d8c9" stroke-width="3"/>
<rect x="300" y="680" width="600" height="70" rx="26" fill="url(#wd)" filter="url(#sf)"/>
</svg>
